P3 

32 23
255
135 206 235  135 206 235  135 206 235  135 206 235  135 206 235  135 206 235  135 206 235  135 206 235  135 206 235  135 206 235  135 206 235  135 206 235  135 206 235  135 206 235  135 206 235  135 206 235  135 206 235  135 206 235  135 206 235  135 206 235    0   0   0    0   0   0    0   0   0    0   0   0    0   0   0    0   0   0    0   0   0    0   0   0    0   0   0    0   0   0    0   0   0    0   0   0  135 206 235  135 206 235  135 206 235  135 206 235  135 206 235  135 206 235  135 206 235  135 206 235  135 206 235  135 206 235  135 206 235  135 206 235  135 206 235  135 206 235  135 206 235  135 206 235  135 206 235  135 206 235  135 206 235  135 206 235    0   0   0    0   0   0    0   0   0    0   0   0    0   0   0    0   0   0    0   0   0    0   0   0    0   0   0    0   0   0    0   0   0    0   0   0  135 206 235  135 206 235  135 206 235  135 206 235  135 206 235  135 206 235  135 206 235  135 206 235  135 206 235  135 206 235  135 206 235  135 206 235  135 206 235  135 206 235  135 206 235  135 206 235  135 206 235  135 206 235  135 206 235  135 206 235  135 206 235    0   0   0    0   0   0    0   0   0    0   0   0    0   0   0    0   0   0    0   0   0    0   0   0    0   0   0    0   0   0    0   0   0  135 206 235  135 206 235  135 206 235  135 206 235  135 206 235  135 206 235  135 206 235  135 206 235  135 206 235  135 206 235  135 206 235  135 206 235  135 206 235  135 206 235  135 206 235  135 206 235  135 206 235  135 206 235  135 206 235  135 206 235  135 206 235    0   0   0    0   0   0    0   0   0    0   0   0    0   0   0    0   0   0    0   0   0    0   0   0    0   0   0    0   0   0    0   0   0  135 206 235  135 206 235  135 206 235  135 206 235  135 206 235  135 206 235  135 206 235  135 206 235  135 206 235  135 206 235  135 206 235  135 206 235  135 206 235  135 206 235  135 206 235  135 206 235  135 206 235  135 206 235  135 206 235  135 206 235  135 206 235  135 206 235  135 206 235    0   0   0    0   0   0    0   0   0    0   0   0    0   0   0    0   0   0    0   0   0    0   0   0    0   0   0  135 206 235  135 206 235  135 206 235  135 206 235  135 206 235  135 206 235  135 206 235  135 206 235    0   0   0    0   0   0    0   0   0    0   0   0    0   0   0    0   0   0    0   0   0    0   0   0  135 206 235  135 206 235  135 206 235  135 206 235  135 206 235  135 206 235  135 206 235  135 206 235  135 206 235    0   0   0    0   0   0    0   0   0    0   0   0    0   0   0    0   0   0    0   0   0  135 206 235  135 206 235  135 206 235  135 206 235  135 206 235  135 206 235  135 206 235  135 206 235  135 206 235  135 206 235    0   0   0    0   0   0    0   0   0    0   0   0    0   0   0    0   0   0    0   0   0    0   0   0    0   0   0  135 206 235  135 206 235  135 206 235  135 206 235  135 206 235  135 206 235  135 206 235  135 206 235  135 206 235  255 255 255    0   0   0    0   0   0    0   0   0    0 255   0  135 206 235  135 206 235  135 206 235  135 206 235  135 206 235  135 206 235  135 206 235  135 206 235  135 206 235  135 206 235  135 206 235  135 206 235  135 206 235    0   0   0    0   0   0    0   0   0    0   0   0    0   0   0    0   0   0  135 206 235  135 206 235  135 206 235  135 206 235  135 206 235  135 206 235  135 206 235  135 206 235  255 255 255  255 255 255  255 255 255  255 255 255  135 206 235  135 206 235  135 206 235  135 206 235  135 206 235  135 206 235  135 206 235  135 206 235  135 206 235  135 206 235  135 206 235  135 206 235  135 206 235  135 206 235  135 206 235  135 206 235    0   0   0    0   0   0    0   0   0    0   0   0  135 206 235  135 206 235  135 206 235  135 206 235  135 206 235  135 206 235  135 206 235  255 255 255  255 255 255  255 255 255  255 255 255  255 255 255  135 206 235  135 206 235  135 206 235  135 206 235  135 206 235  135 206 235  135 206 235  135 206 235  135 206 235  135 206 235  135 206 235  135 206 235  135 206 235  135 206 235  135 206 235  135 206 235    0   0   0    0   0   0    0   0   0    0   0   0    0   0   0  135 206 235  135 206 235  135 206 235  135 206 235  135 206 235  135 206 235  255 255 255  255   0   0  255 255 255  255 255 255  255 255 255  135 206 235  135 206 235  135 206 235  135 206 235  135 206 235  135 206 235  135 206 235  135 206 235  135 206 235  135 206 235  135 206 235  135 206 235  135 206 235  135 206 235  135 206 235  135 206 235  135 206 235    0   0   0    0   0   0    0   0   0    0   0   0  135 206 235  135 206 235  135 206 235  135 206 235  135 206 235  135 206 235  255 255 255  255 255 255  255 255 255  255 255 255  255 255 255  135 206 235  135 206 235  135 206 235  135 206 235  135 206 235  135 206 235  135 206 235  135 206 235  135 206 235  135 206 235  135 206 235  135 206 235  135 206 235  135 206 235  135 206 235  135 206 235  135 206 235  135 206 235    0   0   0    0   0   0    0   0   0  135 206 235  135 206 235  135 206 235  135 206 235  135 206 235  135 206 235    0   0   0    0   0   0    0   0   0    0   0   0    0   0   0  135 206 235  135 206 235  135 206 235  135 206 235  135 206 235  135 206 235  135 206 235  135 206 235  135 206 235  135 206 235  135 206 235  135 206 235  135 206 235  135 206 235  135 206 235  135 206 235  135 206 235  135 206 235    0   0   0    0   0   0    0   0   0  135 206 235  135 206 235  135 206 235  135 206 235    0   0   0    0   0   0    0   0   0    0   0   0    0   0   0    0   0   0    0   0   0  135 206 235  135 206 235  135 206 235  135 206 235  135 206 235  135 206 235  135 206 235    0   0   0  135 206 235  135 206 235  135 206 235  135 206 235  135 206 235  135 206 235  135 206 235  135 206 235  135 206 235  135 206 235  135 206 235    0   0   0    0   0   0  255 255 255  135 206 235  255 255 255    0   0   0    0   0   0    0   0   0    0   0   0    0   0   0    0   0   0    0   0   0    0   0   0  135 206 235  135 206 235  135 206 235  135 206 235  135 206 235  135 206 235  135 206 235    0   0   0    0   0   0  135 206 235  135 206 235  135 206 235  135 206 235  135 206 235  135 206 235  135 206 235  135 206 235  135 206 235  135 206 235  135 206 235    0   0   0    0   0   0  255 255 255  255 255 255    0   0   0    0   0   0    0   0   0    0   0   0    0   0   0    0   0   0    0   0   0    0   0   0  135 206 235  135 206 235  135 206 235  135 206 235  135 206 235  135 206 235  135 206 235  135 206 235    0   0   0    0   0   0  135 206 235  135 206 235  135 206 235  135 206 235  135 206 235  135 206 235  135 206 235  135 206 235  135 206 235  135 206 235    0   0   0    0   0   0  255 255 255  255 255 255    0   0   0    0   0   0    0   0   0    0   0   0    0   0   0    0   0   0    0   0   0    0   0   0  135 206 235  135 206 235  135 206 235  135 206 235  135 206 235  135 206 235  135 206 235  135 206 235    0   0   0    0   0   0    0   0   0  135 206 235  135 206 235  135 206 235  135 206 235  135 206 235  135 206 235  135 206 235  135 206 235  135 206 235    0   0   0    0   0   0  255 255 255    0   0   0    0   0   0    0   0   0    0   0   0    0   0   0    0   0   0    0   0   0    0   0   0    0   0   0  135 206 235  135 206 235  135 206 235  135 206 235  135 206 235  135 206 235  135 206 235  135 206 235  135 206 235    0   0   0    0   0   0    0   0   0  135 206 235  135 206 235  135 206 235  135 206 235  135 206 235  135 206 235  135 206 235  135 206 235    0   0   0  135 206 235  255 255 255    0   0   0    0   0   0    0   0   0    0   0   0    0   0   0    0   0   0    0   0   0    0   0   0    0   0   0  135 206 235  135 206 235  135 206 235  135 206 235  135 206 235  135 206 235  135 206 235  135 206 235    0   0   0    0   0   0    0   0   0    0   0   0  135 206 235  135 206 235  135 206 235  135 206 235  135 206 235  135 206 235  135 206 235    0   0   0    0   0   0  135 206 235    0   0   0    0   0   0    0   0   0    0   0   0    0   0   0    0   0   0    0   0   0    0   0   0    0   0   0    0   0   0  135 206 235  135 206 235  135 206 235  135 206 235  135 206 235  135 206 235  135 206 235  135 206 235    0   0   0    0   0   0    0   0   0    0   0   0  135 206 235  135 206 235  135 206 235  135 206 235  135 206 235  135 206 235    0   0   0    0   0   0  135 206 235  135 206 235    0   0   0    0   0   0    0   0   0    0   0   0    0   0   0    0   0   0    0   0   0    0   0   0    0   0   0    0   0   0  135 206 235  135 206 235  135 206 235  135 206 235  135 206 235  135 206 235  135 206 235    0   0   0    0   0   0    0   0   0    0   0   0  135 206 235  135 206 235  135 206 235  135 206 235  135 206 235  135 206 235  135 206 235  135 206 235  135 206 235  135 206 235    0   0   0    0   0   0    0   0   0    0   0   0    0   0   0    0   0   0    0   0   0    0   0   0    0   0   0    0   0   0    0   0   0  135 206 235  135 206 235  135 206 235  135 206 235  135 206 235  135 206 235    0   0   0    0   0   0    0   0   0    0   0   0  135 206 235  135 206 235  135 206 235  135 206 235  135 206 235  135 206 235  135 206 235  135 206 235  135 206 235  135 206 235  135 206 235    0   0   0    0   0   0    0   0   0    0   0   0    0   0   0    0   0   0    0   0   0    0   0   0    0   0   0    0   0   0    0   0   0  135 206 235  135 206 235  135 206 235  135 206 235  135 206 235    0   0   0    0   0   0    0   0   0    0   0   0  135 206 235  135 206 235  135 206 235  135 206 235  135 206 235  135 206 235  135 206 235  135 206 235  135 206 235  135 206 235  135 206 235  135 206 235    0   0   0    0   0   0    0   0   0    0   0   0    0   0   0    0   0   0    0   0   0    0   0   0    0   0   0    0   0   0    0   0   0  

